# xmcd
#
# Track frame offsets:
#	150
#	34177
#	55765
#	80895
#	107845
#	137625
#	166532
#	192920
#	216882
#	242730
#
# Disc length: 3628 seconds
#
# Revision: 0
# Processed by: cddbd v1.5.2PL0 Copyright (c) Steve Scherf et al.
# Submitted via: audiograbber 1.83.01
#
DISCID=860e2a0a
DTITLE=The Royal Philharmonic Orchestra - The Greatest Hits Of The Rolling Ston
DTITLE=es [SBM]
DYEAR=2000
DGENRE=Symphonic Rock
TTITLE0=Satisfaction
TTITLE1=The Last Time
TTITLE2=Paint It Black
TTITLE3=Emotional Rescue
TTITLE4=As Tears Go By
TTITLE5=Out Of Time
TTITLE6=Angie
TTITLE7=19th Nervous Breakdown
TTITLE8=Lady Jane
TTITLE9=Fool To Cry
EXTD=
EXTT0=
EXTT1=
EXTT2=
EXTT3=
EXTT4=
EXTT5=
EXTT6=
EXTT7=
EXTT8=
EXTT9=
PLAYORDER=
